<svg xmlns="http://www.w3.org/2000/svg" xmlns:xlink="http://www.w3.org/1999/xlink" width="18" height="18" viewBox="0 0 18 18"><defs><path id="xrnda" d="M226.002 3611.624v6.751a5.627 5.627 0 0 1-5.626 5.626h-6.752a5.627 5.627 0 0 1-5.626-5.626v-6.751a5.627 5.627 0 0 1 5.626-5.627h6.752a5.627 5.627 0 0 1 5.626 5.627zm-5.401 3.375c0-1.986-1.616-3.6-3.601-3.6a3.605 3.605 0 0 0-3.601 3.6c0 1.985 1.616 3.601 3.6 3.601 1.986 0 3.602-1.616 3.602-3.6zm.139-4.956a1.216 1.216 0 1 0 2.432 0 1.216 1.216 0 0 0-2.432 0z"/></defs><g><g transform="translate(-208 -3606)"><use fill="gray" xlink:href="#xrnda"/></g></g></svg>