<svg xmlns="http://www.w3.org/2000/svg" xmlns:xlink="http://www.w3.org/1999/xlink" width="20" height="11" viewBox="0 0 20 11"><defs><path id="qtk5a" d="M272.821 3619.724c-.054-.086-.386-.776-1.986-2.195-1.675-1.486-1.45-1.244.567-3.814 1.23-1.564 1.72-2.52 1.567-2.929-.147-.389-1.05-.286-1.05-.286l-3.006.017s-.222-.03-.388.065c-.162.094-.265.308-.265.308s-.477 1.211-1.112 2.241c-1.338 2.173-1.875 2.288-2.093 2.152-.51-.314-.382-1.263-.382-1.937 0-2.105.334-2.983-.651-3.21-.328-.075-.568-.126-1.404-.134-1.072-.01-1.981.004-2.495.243-.342.16-.606.518-.445.538.199.025.649.116.888.427.308.4.297 1.3.297 1.3s.178 2.479-.414 2.787c-.406.211-.962-.22-2.156-2.192-.611-1.01-1.074-2.126-1.074-2.126s-.089-.208-.247-.32a1.283 1.283 0 0 0-.463-.177l-2.857.017s-.43.012-.587.19c-.14.159-.01.486-.01.486s2.237 5 4.77 7.522c2.323 2.311 4.96 2.16 4.96 2.16h1.196s.361-.039.545-.229c.17-.174.163-.501.163-.501s-.023-1.533.722-1.758c.734-.222 1.676 1.48 2.675 2.136.755.496 1.329.387 1.329.387l2.671-.036s1.398-.082.735-1.132z"/></defs><g><g transform="translate(-253 -3610)"><use fill="gray" xlink:href="#qtk5a"/></g></g></svg>