<svg xmlns="http://www.w3.org/2000/svg" xmlns:xlink="http://www.w3.org/1999/xlink" width="22" height="21" viewBox="0 0 22 21"><defs><path id="fvswa" d="M1055.992 65.57a2.69 2.69 0 0 0 2.025 1.472l4.462.647-3.223 3.137a2.694 2.694 0 0 0-.776 2.387l.762 4.437-4.008-2.103a2.707 2.707 0 0 0-2.493.003l-4.002 2.1.762-4.436a2.694 2.694 0 0 0-.777-2.389l-3.222-3.135 4.462-.648a2.69 2.69 0 0 0 2.025-1.47l2.002-4.049zm-3.413-5.695l-2.378 4.809a.694.694 0 0 1-.524.38l-5.317.771a1.564 1.564 0 0 0-1.271 1.07 1.56 1.56 0 0 0 .398 1.611l3.847 3.744c.164.16.24.39.2.614l-.907 5.286c-.08.465.042.917.344 1.275a1.596 1.596 0 0 0 1.94.382l4.756-2.496a.71.71 0 0 1 .647 0l4.756 2.496c.231.121.478.183.732.183.465 0 .906-.207 1.209-.565.302-.358.424-.811.343-1.275l-.908-5.286a.694.694 0 0 1 .2-.614l3.848-3.744a1.56 1.56 0 0 0 .398-1.611 1.565 1.565 0 0 0-1.271-1.07l-5.318-.771a.695.695 0 0 1-.523-.38l-2.377-4.81a1.566 1.566 0 0 0-1.412-.875c-.604 0-1.145.336-1.412.876z"/></defs><g><g transform="translate(-1043 -59)"><use fill="#ad2926" xlink:href="#fvswa"/></g></g></svg>