<svg xmlns="http://www.w3.org/2000/svg" xmlns:xlink="http://www.w3.org/1999/xlink" width="14" height="14" viewBox="0 0 14 14"><defs><path id="n7fza" d="M1026 558v7a2 2 0 0 1-2 2h-10a2 2 0 0 1-2-2v-7c0-.916-.01-1.627-.01-1.627l2.01-3.175V553h10v.198l2.01 3.175s-.01.711-.01 1.627zm-8-4h-3.226l-1.32 2.085A1.98 1.98 0 0 1 1014 556h4zm5.226 0H1020v2h4c.19 0 .371.035.546.085zm1.774 4c0-.551-.449-1-1-1h-4v3h-2v-3h-4c-.551 0-1 .449-1 1v7c0 .551.449 1 1 1h10c.551 0 1-.449 1-1z"/></defs><g><g transform="translate(-1012 -553)"><use fill="#6889c6" xlink:href="#n7fza"/></g></g></svg>