<svg xmlns="http://www.w3.org/2000/svg" xmlns:xlink="http://www.w3.org/1999/xlink" width="14" height="14" viewBox="0 0 14 14"><defs><path id="cq3ua" d="M1019 1012a7 7 0 1 1 0-14 7 7 0 0 1 0 14zm0-13c-1.471 0-2.818.53-3.862 1.408l3.862 3.862 3.862-3.862A5.976 5.976 0 0 0 1019 999zm4.592 9.862A5.976 5.976 0 0 0 1025 1005c0-1.471-.53-2.818-1.408-3.862l-3.862 3.862zM1013 1005c0 1.471.53 2.818 1.408 3.862l3.862-3.862-3.862-3.862A5.976 5.976 0 0 0 1013 1005zm6 6c1.471 0 2.818-.53 3.862-1.408l-3.862-3.862-3.862 3.862A5.976 5.976 0 0 0 1019 1011z"/></defs><g><g transform="translate(-1012 -998)"><use fill="#595959" xlink:href="#cq3ua"/></g></g></svg>