<svg xmlns="http://www.w3.org/2000/svg" xmlns:xlink="http://www.w3.org/1999/xlink" width="16" height="12" viewBox="0 0 16 12"><defs><path id="tlbja" d="M1012 501a2 2 0 0 1 2-2h8a2 2 0 0 1 2 2v8a2 2 0 0 1-2 2h-8a2 2 0 0 1-2-2z"/><path id="tlbjb" d="M1026 508h-6c-.339 0-.994-.166-.994-.514 0-.347.655-.486.994-.486h6l-.89-.955a.64.64 0 0 1 0-.89.602.602 0 0 1 .866 0l1.839 1.887a.63.63 0 0 1 .04.045l.009.013c.01.012.018.024.027.037l.007.011a.636.636 0 0 1 .024.042l.004.008a.637.637 0 0 1 .021.048l.003.006a.644.644 0 0 1 .018.051l.001.007c.005.017.01.035.013.053l.003.016.006.045a.607.607 0 0 1 0 .125c-.001.016-.004.03-.006.046l-.003.015a.634.634 0 0 1-.013.053l-.001.007a.638.638 0 0 1-.019.052c0 .002 0 .004-.002.006a.627.627 0 0 1-.021.047l-.004.008a.668.668 0 0 1-.025.042l-.006.011-.027.038-.009.012a.704.704 0 0 1-.04.045l-1.84 1.887a.604.604 0 0 1-.866 0 .64.64 0 0 1 0-.89z"/><path id="tlbjd" d="M1015 504v-1h6v1z"/><path id="tlbje" d="M1015 506v-1h6v1z"/><path id="tlbjf" d="M1015 508v-1h6v1z"/><clipPath id="tlbjc"><use fill="#fff" xlink:href="#tlbja"/></clipPath></defs><g><g transform="translate(-1012 -499)"><use fill="#f63831" xlink:href="#tlbjb"/></g><g transform="translate(-1012 -499)"><use fill="gray" xlink:href="#tlbja"/><use fill="#fff" fill-opacity="0" stroke="#f63831" stroke-linecap="round" stroke-linejoin="round" stroke-miterlimit="50" stroke-width="2" clip-path="url(&quot;#tlbjc&quot;)" xlink:href="#tlbja"/></g><g transform="translate(-1012 -499)"><use fill="#f63831" xlink:href="#tlbjd"/></g><g transform="translate(-1012 -499)"><use fill="#f63831" xlink:href="#tlbje"/></g><g transform="translate(-1012 -499)"><use fill="#f63831" xlink:href="#tlbjf"/></g></g></svg>